# xmcd CD database file
#
# Track frame offsets:
#	150
#	24878
#	43378
#	73744
#	105110
#	132895
#	159797
#	197219
#	222815
#
# Disc length: 3284 seconds
#
# Revision: 0
# Processed by: cddbd v1.5.2PL0 Copyright (c) Steve Scherf et al.
# Submitted via: CDex 1.50
#
DISCID=720cd209
DTITLE=YVES TEICHER - Monade_Yves Teicher, Violin and Arrangements
DYEAR=2016
DGENRE=Jazz
TTITLE0=JUIF ERRANT
TTITLE1=MUSLIM
TTITLE2=MONADE I
TTITLE3=MONADE II
TTITLE4=SUMMERTIME (G Gershwin)
TTITLE5=NUAGES (D Reinhardt)
TTITLE6=BE BOP
TTITLE7=SOLEIL ANDALOU
TTITLE8=FEUILLES MORTES (J Kosma)
EXTD=YEAR: 2016
EXTT0=
EXTT1=
EXTT2=
EXTT3=
EXTT4=
EXTT5=
EXTT6=
EXTT7=
EXTT8=
PLAYORDER=
